<svg id="Capa_1" fill="#26c7ac" enable-background="new 0 0 491.952 491.952" height="512" viewBox="0 0 491.952 491.952" width="512" xmlns="http://www.w3.org/2000/svg"><path d="m435.874 205.139c-22.627-13.973-48.698-21.37-75.292-21.363h-28.248l-120.211-170.261c-1.124-1.592-2.951-2.539-4.9-2.539h-28c-3.314 0-6 2.687-6 6 0 .456.052.91.155 1.354l38.3 165.444h-117.381l-40.615-118.798c-.83-2.428-3.112-4.059-5.678-4.059h-28c-3.314 0-6 2.686-6 6v117.771c-10.534 3.31-16.39 14.533-13.079 25.067.318 1.012.716 1.997 1.19 2.946 29.163 58.218 88.701 94.976 153.815 94.962h47.622l-38.419 165.959c-.748 3.228 1.263 6.451 4.491 7.199.445.103.901.155 1.358.155h28c1.949 0 3.776-.947 4.9-2.539l120.576-170.774h136.505c17.099.016 30.973-13.833 30.988-30.932.004-4.816-1.115-9.567-3.269-13.875-11.896-23.773-30.183-43.76-52.808-57.717zm-249.107-182.163h17.346l113.531 160.8h-93.654zm-143.054 49.945 37.902 110.855h-55.613v-110.855zm152.16 396.055h-17.346l37.342-161.313h93.9zm281.25-182.319c-3.445 5.617-9.571 9.031-16.16 9.006h-305.035c-60.57.013-115.955-34.179-143.085-88.333-1.969-3.948-.366-8.744 3.582-10.714 1.111-.554 2.336-.842 3.577-.84h69.98.017.032 270.551c33.512-.009 65.758 12.805 90.123 35.814h-51.003c-3.314 0-6 2.686-6 6s2.686 6 6 6h61.252c.299-.002.598-.026.893-.073 6.279 7.605 11.68 15.895 16.1 24.712 2.962 5.865 2.649 12.85-.824 18.428z"/><path d="m163.415 216.436h-17.2c-5.52.007-9.993 4.48-10 10v22.769c.007 5.52 4.48 9.993 10 10h17.2c5.52-.007 9.993-4.48 10-10v-22.769c-.006-5.52-4.48-9.994-10-10zm-2 30.769h-13.2v-18.769h13.2z"/><path d="m219.42 216.436h-17.2c-5.52.007-9.993 4.48-10 10v22.769c.007 5.52 4.48 9.993 10 10h17.2c5.52-.007 9.993-4.48 10-10v-22.769c-.006-5.52-4.48-9.994-10-10zm-2 30.769h-13.2v-18.769h13.2z"/><path d="m275.424 216.436h-17.2c-5.52.007-9.993 4.48-10 10v22.769c.007 5.52 4.48 9.993 10 10h17.2c5.52-.006 9.994-4.48 10-10v-22.769c-.006-5.521-4.479-9.994-10-10zm-2 30.769h-13.2v-18.769h13.2z"/><path d="m107.409 216.436h-17.2c-5.52.006-9.994 4.48-10 10v22.769c.006 5.52 4.48 9.994 10 10h17.2c5.52-.007 9.993-4.48 10-10v-22.769c-.006-5.52-4.48-9.994-10-10zm-2 30.769h-13.2v-18.769h13.2z"/><path d="m331.429 216.436h-17.2c-5.52.006-9.994 4.48-10 10v22.769c.006 5.52 4.48 9.994 10 10h17.2c5.52-.006 9.994-4.48 10-10v-22.769c-.006-5.521-4.479-9.994-10-10zm-2 30.769h-13.2v-18.769h13.2z"/></svg>