<?xml version="1.0" encoding="iso-8859-1"?>
<!-- Generator: Adobe Illustrator 16.0.0, SVG Export Plug-In . SVG Version: 6.00 Build 0)  -->
<!DOCTYPE svg PUBLIC "-//W3C//DTD SVG 1.1//EN" "http://www.w3.org/Graphics/SVG/1.1/DTD/svg11.dtd">
<svg version="1.1" id="Capa_1" xmlns="http://www.w3.org/2000/svg" xmlns:xlink="http://www.w3.org/1999/xlink" x="0px" y="0px"
	 width="48.111px" height="48.11px" viewBox="0 0 48.111 48.11" style="enable-background:new 0 0 48.111 48.11;"
	 xml:space="preserve">
<g>
	<g>
		<path fill="#26c7ac" d="M36.791,26.672l0.058,4c0.36-0.014,0.612-0.01,0.758,0.713c0.513,2.525-2.088,8.81-7.692,11.084
			c-6.864,2.762-11.919,1.575-14.954,0.094c-2.694-1.314-4.45-3.17-5.442-4.875l2.696-0.297c0,0-5.419-7.061-5.654-8.725
			c-0.234-1.662-4.268,9.818-4.268,9.818l2.997-0.33c1.34,3.26,4.211,6.193,7.916,8.003c2.667,1.302,5.621,1.953,8.714,1.953
			c3.076,0,6.29-0.646,9.493-1.933c6.908-2.806,11.109-10.684,10.115-15.588C41.029,28.139,39.212,26.68,36.791,26.672z"/>
		<path fill="#26c7ac" d="M47.82,8.866c-0.354-1.595-2.511-3.008-5.072-2.448c-1.041,0.165-7.666,2.581-7.666,2.581s-6.487-5.476-8.059-6.677
			c-1.574-1.201-3.639-0.438-3.639-0.438l4.73,8.569l-8.826,2.658l-3.621-4.196l-3.456-0.081c0,0,3.518,5.315,3.689,7.176
			c0.018,0.187,0.016,0.411,0.005,0.651c1.942-1.078,4.175-1.696,6.555-1.696c2.018,0,3.927,0.454,5.648,1.246l0.748-0.073
			l0.092,0.482c2.287,1.252,4.176,3.145,5.418,5.438c0.535-2.389,0.936-6.084,0.936-6.084s9.355-3.017,10.164-3.435
			C46.275,12.124,48.687,11.594,47.82,8.866z"/>
		<path fill="#26c7ac" d="M22.462,41.001c6.893,0,12.5-5.606,12.5-12.5c0-4.97-2.917-9.271-7.129-11.284c-0.023-0.026-0.043-0.048-0.051-0.055
			l-0.021,0.021C26.152,16.426,24.355,16,22.461,16c-0.278,0-0.553,0.013-0.826,0.03v-0.001v0.001
			C15.127,16.458,9.963,21.885,9.963,28.5C9.963,35.395,15.57,41.001,22.462,41.001z M17.972,39.061
			c-0.202-0.231-0.878-1.075-1.539-2.631c1.025,0.269,2.22,0.484,3.585,0.608c0.419,1.367,0.871,2.304,1.193,2.867
			C20.074,39.782,18.985,39.493,17.972,39.061z M18.947,26.529c-0.03,0.617-0.052,1.256-0.052,1.934c0,0.916,0.032,1.77,0.085,2.568
			c-1.521-0.148-2.828-0.381-3.914-0.648c-0.043-0.593-0.074-1.207-0.074-1.867c0-0.449,0.012-0.883,0.032-1.303
			C16.107,26.936,17.411,26.689,18.947,26.529z M15.104,26.124c0.147-1.604,0.43-2.953,0.765-4.063
			c1.027-0.318,2.275-0.593,3.751-0.753c-0.263,1.181-0.486,2.562-0.612,4.182C17.503,25.637,16.201,25.862,15.104,26.124z
			 M19.065,32.072c0.15,1.525,0.387,2.82,0.658,3.904c-1.466-0.16-2.713-0.435-3.744-0.752c-0.339-1.027-0.633-2.278-0.81-3.758
			C16.273,31.721,17.567,31.936,19.065,32.072z M22.644,26.34c0.733,0,1.413,0.024,2.068,0.062c0.042,0.703,0.071,1.436,0.071,2.224
			c0,0.896-0.035,1.724-0.088,2.505c-0.698,0.043-1.427,0.071-2.215,0.071c-0.877,0-1.69-0.034-2.463-0.085
			c-0.06-0.822-0.097-1.701-0.097-2.654c0-0.714,0.025-1.381,0.06-2.025C20.81,26.376,21.693,26.34,22.644,26.34z M20.049,25.404
			c0.138-1.636,0.375-3.028,0.65-4.187c0.547-0.035,1.112-0.06,1.717-0.06c0.541,0,1.052,0.019,1.547,0.047
			c0.282,1.145,0.526,2.531,0.673,4.16c-0.631-0.032-1.292-0.052-1.992-0.052C21.719,25.312,20.862,25.35,20.049,25.404z
			 M24.607,32.169c-0.158,1.554-0.404,2.856-0.685,3.925c-0.445,0.021-0.907,0.035-1.389,0.035c-0.603,0-1.167-0.025-1.713-0.061
			c-0.287-1.062-0.542-2.36-0.708-3.92c0.748,0.047,1.528,0.078,2.368,0.078C23.23,32.229,23.936,32.206,24.607,32.169z
			 M22.407,39.881c-0.156-0.222-0.72-1.096-1.273-2.761c0.45,0.021,0.916,0.034,1.4,0.034c0.376,0,0.733-0.014,1.088-0.025
			C23.142,38.615,22.647,39.504,22.407,39.881z M27.088,38.998c-1.093,0.482-2.273,0.803-3.512,0.922
			c0.326-0.597,0.757-1.529,1.153-2.857c1.46-0.115,2.731-0.336,3.81-0.614C27.902,37.982,27.255,38.801,27.088,38.998z
			 M25.013,36.014c0.266-1.092,0.496-2.392,0.641-3.918c1.616-0.137,2.986-0.371,4.131-0.646c-0.179,1.504-0.474,2.769-0.81,3.804
			C27.897,35.582,26.585,35.864,25.013,36.014z M25.746,26.473c1.662,0.146,3.055,0.394,4.189,0.682
			c0.018,0.4,0.03,0.812,0.03,1.244c0,0.693-0.032,1.338-0.078,1.957c-1.123,0.291-2.501,0.547-4.153,0.697
			c0.047-0.759,0.075-1.564,0.075-2.428C25.809,27.866,25.783,27.158,25.746,26.473z M25.676,25.432
			c-0.136-1.606-0.364-2.98-0.632-4.146c1.631,0.164,2.989,0.47,4.098,0.819c0.316,1.087,0.583,2.401,0.721,3.966
			C28.701,25.797,27.314,25.564,25.676,25.432z M28.99,37.932c0.265-0.508,0.541-1.125,0.805-1.862
			c0.758-0.259,1.402-0.534,1.929-0.802C30.966,36.299,30.042,37.201,28.99,37.932z M32.873,33.323
			c-0.287,0.241-1.146,0.89-2.689,1.506c0.289-1.042,0.533-2.252,0.674-3.664c1.41-0.417,2.385-0.874,2.984-1.208
			C33.691,31.145,33.359,32.275,32.873,33.323z M30.94,30.053c0.03-0.531,0.052-1.076,0.052-1.654c0-0.329-0.014-0.639-0.023-0.952
			c1.591,0.495,2.533,1.021,2.925,1.271C33.664,28.879,32.727,29.479,30.94,30.053z M33.892,27.523
			c-0.623-0.338-1.6-0.777-2.982-1.178c-0.105-1.461-0.316-2.73-0.586-3.815c1.76,0.712,2.621,1.444,2.719,1.53
			C33.498,25.141,33.789,26.307,33.892,27.523z M32.031,22.177c-0.547-0.289-1.23-0.598-2.06-0.886
			c-0.278-0.856-0.582-1.566-0.875-2.144C30.25,19.969,31.246,20.995,32.031,22.177z M27.203,18.056
			c0.287,0.353,0.941,1.27,1.543,2.857c-1.115-0.303-2.435-0.549-3.968-0.678c-0.407-1.457-0.854-2.495-1.19-3.153
			C24.866,17.208,26.082,17.545,27.203,18.056z M22.222,17.033c0.054,0,0.108-0.003,0.163-0.004c0.25,0.421,0.788,1.444,1.293,3.134
			c-0.409-0.018-0.826-0.03-1.262-0.03c-0.499,0-0.979,0.013-1.441,0.035C21.435,18.579,21.934,17.549,22.222,17.033z
			 M17.843,18.001c0.993-0.438,2.058-0.739,3.173-0.88c-0.337,0.689-0.757,1.722-1.137,3.128c-1.377,0.126-2.576,0.346-3.601,0.617
			C16.935,19.175,17.633,18.253,17.843,18.001z M15.952,19.06c-0.301,0.58-0.618,1.305-0.911,2.186
			c-0.869,0.3-1.579,0.621-2.141,0.924C13.711,20.949,14.748,19.893,15.952,19.06z M11.887,24.051l0.019,0.02
			c0.016-0.016,0.879-0.821,2.767-1.581c-0.284,1.106-0.505,2.413-0.619,3.911c-1.405,0.406-2.4,0.848-3.024,1.173
			C11.129,26.333,11.423,25.148,11.887,24.051z M10.995,28.771c0.369-0.225,1.351-0.758,2.997-1.268
			c-0.012,0.331-0.024,0.661-0.024,1.012c0,0.551,0.019,1.072,0.048,1.58c-1.557-0.467-2.546-0.959-3.019-1.229
			C10.996,28.834,10.996,28.803,10.995,28.771z M11.1,30.084c0.663,0.327,1.65,0.737,3.001,1.114
			c0.141,1.379,0.383,2.571,0.672,3.601c-1.588-0.633-2.469-1.289-2.733-1.508C11.578,32.29,11.257,31.215,11.1,30.084z
			 M15.177,36.051c0.283,0.778,0.583,1.43,0.869,1.959c-1.117-0.756-2.092-1.705-2.882-2.797
			C13.709,35.491,14.379,35.78,15.177,36.051z"/>
		<path fill="#26c7ac" d="M3.029,21.156h4.892v-0.03c1.159-0.142,2.042-0.845,2.042-1.698c0-0.956-1.104-1.729-2.465-1.729
			c-0.001,0-0.003,0.001-0.004,0.001c-0.025-0.939-1.114-1.697-2.46-1.697c-1.361,0-2.464,0.774-2.464,1.729
			c-1.361,0-2.465,0.774-2.465,1.729c0,0.954,1.104,1.729,2.465,1.729C2.726,21.188,2.879,21.175,3.029,21.156z M5.034,19.459
			c0.001,0,0.003,0,0.004,0c0,0.003,0.001,0.006,0.001,0.01H5.032C5.032,19.465,5.034,19.463,5.034,19.459z"/>
		<path fill="#26c7ac" d="M43.58,17.827c-0.002,0-0.002,0.001-0.004,0.001c-0.021-0.804-0.953-1.452-2.104-1.452c-1.164,0-2.108,0.662-2.108,1.479
			c-1.164,0-2.107,0.662-2.107,1.479c0,0.816,0.943,1.479,2.107,1.479c0.135,0,0.266-0.011,0.394-0.027h4.184V20.76
			c0.992-0.121,1.747-0.723,1.747-1.452C45.687,18.489,44.744,17.827,43.58,17.827z M41.47,19.342c0-0.003,0.001-0.005,0.001-0.008
			c0.001,0,0.002,0,0.004,0c0,0.002,0.001,0.005,0.001,0.008H41.47z"/>
		<path fill="#26c7ac" d="M13.491,4.331c0.082,0,0.161-0.007,0.238-0.017h2.534V4.298c0.601-0.073,1.058-0.438,1.058-0.88
			c0-0.495-0.572-0.896-1.277-0.896c0,0-0.001,0-0.002,0c-0.013-0.486-0.577-0.879-1.274-0.879c-0.705,0-1.276,0.401-1.276,0.896
			c-0.705,0-1.277,0.401-1.277,0.896S12.785,4.331,13.491,4.331z M14.767,3.436c0.001,0,0.001,0,0.002,0c0,0.002,0,0.003,0,0.005
			h-0.004C14.766,3.439,14.767,3.438,14.767,3.436z"/>
		<path fill="#26c7ac" d="M34.548,1.813c0.055,0,0.107-0.005,0.16-0.011h1.709V1.791c0.404-0.05,0.713-0.295,0.713-0.594
			c0-0.334-0.387-0.604-0.861-0.604h-0.001C36.259,0.265,35.879,0,35.41,0c-0.477,0-0.861,0.271-0.861,0.604
			c-0.475,0-0.861,0.271-0.861,0.604C33.687,1.542,34.074,1.813,34.548,1.813z M35.41,1.209L35.41,1.209v0.003h-0.002L35.41,1.209z"
			/>
	</g>
</g>
<g>
</g>
<g>
</g>
<g>
</g>
<g>
</g>
<g>
</g>
<g>
</g>
<g>
</g>
<g>
</g>
<g>
</g>
<g>
</g>
<g>
</g>
<g>
</g>
<g>
</g>
<g>
</g>
<g>
</g>
</svg>
