<?xml version="1.0" encoding="iso-8859-1"?>
<!-- Generator: Adobe Illustrator 19.1.0, SVG Export Plug-In . SVG Version: 6.00 Build 0)  -->
<svg fill="#26c7ac" version="1.1" id="Capa_1" xmlns="http://www.w3.org/2000/svg" xmlns:xlink="http://www.w3.org/1999/xlink" x="0px" y="0px"
	 viewBox="0 0 197.582 197.582" style="enable-background:new 0 0 197.582 197.582;" xml:space="preserve">
<g>
	<g>
		<g>
			<path d="M32.027,0c-4.709,0-10.093,2.306-10.093,14.86v167.754c0,9.712,5.383,12.936,10.093,12.936
				s10.151-3.224,10.151-12.936V14.86C42.178,2.306,36.746,0,32.027,0z M34.645,129.914h-5.168l-2.921-8.647v-13.209l2.286-3.459
				h6.351l2.384,3.459v13.209h0.01L34.645,129.914z M148.888,178.784V44.913l2.804-0.879v134.75H148.888z M16.59,106.954h4.807
				v2.423h-2.765l-1.446,8.148h-2.54L16.59,106.954z M165.604,12.193c-0.762-0.918-2.198-1.612-1.563-3.341
				c0.42-1.172,1.466-1.192,2.804-1.27c4.543-0.254,10.669-0.127,10.669-0.127s3.722-0.508,2.081,2.677
				c-1.739,3.293-2.022,5.657-0.518,7.728c0,0-3.507,3.625,0,7.787c0,0-3.605,3.566,0,7.474c0,0-3.889,3.703,0,7.523l-13.717,4.582
				c0,0,1.856-2.022,2.501-5.237c0.322-1.768,0.205-4.133-0.576-6.126c-1.68-4.133-2.443-7.689-0.664-13.327
				C168.223,15.593,166.601,13.258,165.604,12.193z M142.742,12.193c-0.762-0.918-2.179-1.612-1.583-3.341
				c0.44-1.172,1.524-1.192,2.785-1.27c4.602-0.254,10.708-0.127,10.708-0.127s3.742-0.508,2.101,2.677
				c-1.778,3.293-2.062,5.657-0.537,7.728c0,0-3.507,3.625,0,7.787c0,0-3.605,3.566,0,7.474c0,0-3.889,3.703,0,7.523l-13.717,4.582
				c0,0,1.866-2.022,2.501-5.237c0.342-1.768,0.195-4.133-0.576-6.126c-1.68-4.133-2.443-7.689-0.645-13.327
				C145.36,15.593,143.719,13.258,142.742,12.193z M171.75,178.784V44.913l2.804-0.879v134.75H171.75z M148.282,184.969h4.045
				v12.613h-4.045V184.969z M171.144,184.969h4.045v12.613h-4.045V184.969z M140.534,180.445h19.56v2.814h-19.56V180.445z
				 M47.503,106.954l1.964,10.571h-2.56l-1.446-8.148h-2.765v-2.423H47.503z M182.937,180.445v2.814h-19.54v-2.814H182.937z
				 M73.286,106.954h4.846v2.423h-2.765l-1.446,8.148h-2.54L73.286,106.954z M104.257,106.954l1.944,10.571h-2.56l-1.466-8.148
				h-2.745v-2.423H104.257z M88.781,0c-4.719,0-10.112,2.306-10.112,14.86v167.754c0,9.712,5.403,12.936,10.112,12.936
				c4.69,0,10.112-3.224,10.112-12.936V14.86C98.894,2.306,93.471,0,88.781,0z M94.311,121.267l-2.97,8.647h-5.139l-2.97-8.647
				v-13.209l2.306-3.459h6.351l2.423,3.459V121.267z"/>
		</g>
	</g>
</g>
<g>
</g>
<g>
</g>
<g>
</g>
<g>
</g>
<g>
</g>
<g>
</g>
<g>
</g>
<g>
</g>
<g>
</g>
<g>
</g>
<g>
</g>
<g>
</g>
<g>
</g>
<g>
</g>
<g>
</g>
</svg>
